<svg width="32" height="32" viewBox="0 0 32 32" fill="none" xmlns="http://www.w3.org/2000/svg">
<g clip-path="url(#clip0_249_587)">
<path d="M14.7039 0.114235C7.32901 0.939453 1.39699 7.04606 0.595364 14.473C-0.20626 22.2301 4.12251 29.1619 10.6958 31.8026C11.1768 31.9676 11.6578 31.6375 11.6578 30.9774V28.3367C11.6578 28.3367 11.0165 28.5017 10.2149 28.5017C7.97031 28.5017 7.00836 26.5212 6.84803 25.3659C6.68771 24.7057 6.36706 24.2106 5.88608 23.7155C5.40511 23.5504 5.24478 23.5504 5.24478 23.3854C5.24478 23.0553 5.72576 23.0553 5.88608 23.0553C6.84803 23.0553 7.64965 24.2106 7.9703 24.7057C8.77193 26.0261 9.73388 26.3561 10.2149 26.3561C10.8562 26.3561 11.3371 26.1911 11.6578 26.0261C11.8181 24.8708 12.2991 23.7155 13.261 23.0553C9.57355 22.2301 6.84803 20.0845 6.84803 16.4535C6.84803 14.6381 7.64965 12.8226 8.77193 11.5022C8.6116 11.1721 8.45128 10.3469 8.45128 9.19163C8.45128 8.53145 8.45128 7.54119 8.93225 6.55093C8.93225 6.55093 11.1768 6.55093 13.4213 8.6965C14.223 8.36641 15.3452 8.20137 16.4675 8.20137C17.5898 8.20137 18.7121 8.36641 19.674 8.6965C21.7582 6.55093 24.1631 6.55093 24.1631 6.55093C24.4838 7.54119 24.4838 8.53145 24.4838 9.19163C24.4838 10.512 24.3234 11.1721 24.1631 11.5022C25.2854 12.8226 26.087 14.473 26.087 16.4535C26.087 20.0845 23.3615 22.2301 19.674 23.0553C20.636 23.8805 21.2773 25.3659 21.2773 26.8513V31.1424C21.2773 31.6375 21.7582 32.1327 22.3995 31.9676C28.3316 29.492 32.5 23.5504 32.5 16.6186C32.5 6.71598 24.3234 -1.04107 14.7039 0.114235Z" fill="#F2F2F2"/>
</g>
<defs>
<clipPath id="clip0_249_587">
<rect width="32" height="32" fill="white"/>
</clipPath>
</defs>
</svg>
